<svg width="84" height="83" viewBox="0 0 84 83" fill="none" xmlns="http://www.w3.org/2000/svg">
<path fill-rule="evenodd" clip-rule="evenodd" d="M2.33033 26.8431C2.49278 25.7297 4.19389 15.2069 12.8263 10.7714C24.5852 4.72843 39.8867 14.7692 41.3261 15.7412C48.6446 20.6796 49.5224 25.2743 55.9871 26.3379C62.2869 27.3746 64.7006 23.545 70.3509 25.1138C75.9393 26.6648 80.4177 32.4767 81.2052 37.9655C82.935 50.0198 71.0766 67.4589 54.0588 55.7597C48.9986 52.2811 48.4896 48.5368 42.7109 47.0564C34.0107 44.8279 29.2538 55.7037 20.2323 54.8018C10.6639 53.8438 0.400744 40.0469 2.33033 26.8431Z" fill="#E8F2D7"/>
<path fill-rule="evenodd" clip-rule="evenodd" d="M62.1824 75.3341C62.1824 77.188 53.1467 78.6917 42.0004 78.6917C30.8547 78.6917 21.8185 77.188 21.8185 75.3341C21.8185 73.4802 30.8547 71.9765 42.0004 71.9765C53.1467 71.9765 62.1824 73.4802 62.1824 75.3341Z" fill="#E8F2D7"/>
<path fill-rule="evenodd" clip-rule="evenodd" d="M20.4496 47.0112C26.2258 47.0112 30.9083 42.3662 30.9083 36.6362C30.9083 30.9063 26.2258 26.2612 20.4496 26.2612C14.6735 26.2612 9.99097 30.9063 9.99097 36.6362C9.99097 42.3662 14.6735 47.0112 20.4496 47.0112ZM20.4496 41.8237C23.3377 41.8237 25.679 39.5012 25.679 36.6362C25.679 33.7713 23.3377 31.4487 20.4496 31.4487C17.5616 31.4487 15.2203 33.7713 15.2203 36.6362C15.2203 39.5012 17.5616 41.8237 20.4496 41.8237Z" fill="url(#paint0_linear_2_4896)"/>
<path d="M20.4496 26.2612H68.1673V43.254C68.1673 56.4308 57.4853 67.1128 44.3084 67.1128C31.1316 67.1128 20.4496 56.4308 20.4496 43.254V26.2612Z" fill="url(#paint1_linear_2_4896)"/>
<mask id="mask0_2_4896" style="mask-type:alpha" maskUnits="userSpaceOnUse" x="20" y="26" width="49" height="42">
<path d="M20.4496 26.2612H68.1673V43.254C68.1673 56.4308 57.4853 67.1128 44.3084 67.1128C31.1316 67.1128 20.4496 56.4308 20.4496 43.254V26.2612Z" fill="white"/>
</mask>
<g mask="url(#mask0_2_4896)">
<path d="M81.0172 52.2966C81.149 45.7562 76.6812 40.0175 70.308 38.5416C66.7979 37.7286 63.1092 38.3173 60.0264 40.1824L57.6512 41.6194C52.3991 44.797 45.9715 45.363 40.245 43.1523L34.4488 40.9147C29.155 38.871 23.1521 40.7826 20.0148 45.5111C17.8138 48.8285 17.3863 53.0167 18.8717 56.7104L28.6389 80.9983L80.4745 79.225L81.0172 52.2966Z" fill="url(#paint2_linear_2_4896)"/>
</g>
<path d="M41.9024 7.72169C42.2441 9.4794 41.0847 11.1835 39.3128 11.5279C37.5409 11.8724 35.8275 10.7267 35.4859 8.96895C35.1442 7.21123 36.3036 5.50712 38.0755 5.1627C39.8474 4.81828 41.5608 5.96398 41.9024 7.72169Z" fill="#F5A623"/>
<path d="M54.9846 15.0874C55.3946 17.1966 54.0033 19.2416 51.877 19.6549C49.7507 20.0682 47.6947 18.6933 47.2847 16.5841C46.8747 14.4748 48.266 12.4299 50.3923 12.0166C52.5185 11.6033 54.5746 12.9781 54.9846 15.0874Z" fill="#F5A623"/>
<defs>
<linearGradient id="paint0_linear_2_4896" x1="13.0285" y1="57.5199" x2="34.1081" y2="43.1267" gradientUnits="userSpaceOnUse">
<stop stop-color="#8ABD37"/>
<stop offset="0.274181" stop-color="#81B431"/>
<stop offset="1" stop-color="#387002"/>
</linearGradient>
<linearGradient id="paint1_linear_2_4896" x1="7.88981" y1="102.526" x2="78.9676" y2="71.1669" gradientUnits="userSpaceOnUse">
<stop stop-color="#387002"/>
<stop offset="1" stop-color="#8ABD37"/>
</linearGradient>
<linearGradient id="paint2_linear_2_4896" x1="36.7916" y1="21.9705" x2="68.6119" y2="65.541" gradientUnits="userSpaceOnUse">
<stop stop-color="#387002"/>
<stop offset="1" stop-color="#8ABD37"/>
</linearGradient>
</defs>
</svg>
