<svg width="24" height="24" viewBox="0 0 24 24" fill="none" xmlns="http://www.w3.org/2000/svg">
<path fill-rule="evenodd" clip-rule="evenodd" d="M4.78284 2.34865C4.87301 1.99671 5.14697 1.72135 5.49965 1.62909C7.11887 1.20974 8.81161 1.84351 9.76334 3.18446L9.787 3.22012L10.0021 3.18026C15.9487 2.14162 21.5806 5.80932 21.9777 10.9225C22.572 10.7231 23.0003 10.1616 23.0003 9.50012C23.0003 9.22397 23.2241 9.00012 23.5003 9.00012C23.7764 9.00012 24.0003 9.22397 24.0003 9.50012C24.0003 10.7146 23.1343 11.7268 21.9861 11.9529C21.8059 14.8848 19.8863 17.4102 17.1027 18.8154L17.9845 21.8611C18.0613 22.1263 17.9085 22.4036 17.6433 22.4804C17.4075 22.5487 17.1622 22.4355 17.0567 22.2233L17.0239 22.1392L16.1808 19.2271C14.912 19.7235 13.5014 19.9999 12.0183 19.9998C10.5545 20.0533 9.12713 19.7894 7.81927 19.2553L6.98434 22.1392C6.90755 22.4044 6.63027 22.5572 6.36502 22.4804C6.12924 22.4121 5.98233 22.1855 6.00653 21.9496L6.02379 21.8611L6.90241 18.8263C5.36063 18.0088 4.03233 16.7948 3.07506 15.2739L2.908 14.9991L1.5 15.0001C0.720304 15.0001 0.0795513 14.4052 0.00686658 13.6446L0 13.5001V11.5001C0 10.6717 0.671573 10.0001 1.5 10.0001L2.169 9.99912L2.20846 9.83335C2.70953 7.82426 3.94391 6.07047 5.66584 4.92727L5.91512 4.76815L5.85557 4.56439C5.69943 4.09279 5.42815 3.66614 5.06445 3.3234C4.80048 3.07376 4.69267 2.7006 4.78284 2.34865ZM16.3067 18.0867C16.3001 18.0896 16.2936 18.0925 16.2871 18.0956C15.0141 18.672 13.5545 19.0001 11.9999 19.0001C10.5348 19.0536 9.11285 18.7578 7.83387 18.1702C7.7804 18.1232 7.716 18.0869 7.64312 18.0658C7.62523 18.0607 7.60728 18.0565 7.58935 18.0534C5.94384 17.2375 4.55294 15.9305 3.63853 14.26C3.5508 14.0998 3.38264 14.0001 3.19994 14.0001H1.49994C1.2238 14.0001 0.99994 13.7763 0.99994 13.5001V11.5001C0.99994 11.224 1.2238 11.0001 1.49994 11.0001H2.57794C2.82086 11.0001 3.02864 10.8255 3.07047 10.5862C3.43155 8.52074 4.66208 6.70972 6.44939 5.61332C6.81872 5.37298 6.98906 4.93829 6.88482 4.52409L6.81481 4.28078C6.63395 3.71956 6.3316 3.20564 5.92932 2.7754L5.75029 2.59715C7.06591 2.25643 8.44624 2.84268 9.11458 4.02601C9.22299 4.21795 9.44432 4.31625 9.65941 4.26799C15.4461 2.96952 20.9999 6.61569 20.9999 11.5001C20.9999 14.3308 19.1078 16.8108 16.3067 18.0867ZM17.3004 7.58238C15.7697 6.43223 13.8763 5.87104 11.9661 6.00127C11.6906 6.02006 11.4824 6.25862 11.5012 6.53413C11.52 6.80963 11.7586 7.01774 12.0341 6.99896C13.7049 6.88505 15.3609 7.37589 16.6997 8.38186C16.9205 8.54773 17.2339 8.50323 17.3998 8.28247C17.5657 8.0617 17.5212 7.74826 17.3004 7.58238ZM6.74968 10.0001C6.74968 9.5859 6.4139 9.25012 5.99968 9.25012L5.89637 9.25731C5.53191 9.30796 5.25119 9.62007 5.24969 9.99813C5.24968 10.4143 5.58547 10.7501 5.99968 10.7501C6.4139 10.7501 6.74968 10.4143 6.74968 10.0001Z" fill="white"/>
</svg>
