<svg width="84" height="83" viewBox="0 0 84 83" fill="none" xmlns="http://www.w3.org/2000/svg">
<path fill-rule="evenodd" clip-rule="evenodd" d="M7.00205 39.7306C7.02451 38.7413 7.38159 29.3739 14.4413 24.577C24.0576 18.042 38.4902 25.1664 39.8507 25.8606C46.7682 29.3869 48.0268 33.3034 53.7837 33.5389C59.3938 33.7687 61.0902 30.1672 66.1903 30.931C71.2345 31.6859 75.7665 36.279 77.0422 40.9856C79.844 51.3222 71.3622 67.8153 55.2538 59.4272C50.4641 56.9332 49.6185 53.7193 44.4157 53.0465C36.5827 52.0337 33.5961 62.0369 25.6247 62.2164C17.1701 62.4058 6.73288 51.4627 7.00205 39.7306Z" fill="#E8F2D7"/>
<path fill-rule="evenodd" clip-rule="evenodd" d="M58.526 76.1911C58.526 78.1604 48.8006 79.7578 36.8033 79.7578C24.8061 79.7578 15.0807 78.1604 15.0807 76.1911C15.0807 74.2217 24.8061 72.625 36.8033 72.625C48.8006 72.625 58.526 74.2217 58.526 76.1911Z" fill="#E8F2D7"/>
<path d="M66.6315 50.5781V51.2266C66.6315 54.9252 63.6823 57.935 60.0072 58.0327L59.8229 58.0352V54.793C61.7445 54.793 63.3112 53.2732 63.3865 51.37L63.3893 51.2266V50.5781H66.6315Z" fill="url(#paint0_linear_2_1720)"/>
<path d="M61.6354 50.5781C57.7694 50.5781 54.6354 47.4441 54.6354 43.5781V20.6172C54.6354 16.7512 57.7694 13.6172 61.6354 13.6172H68.3854C72.2514 13.6172 75.3854 16.7512 75.3854 20.6172V43.5781C75.3854 47.4441 72.2514 50.5781 68.3854 50.5781H61.6354Z" fill="url(#paint1_linear_2_1720)"/>
<path d="M69.5477 31.9738C70.0352 31.3137 69.5639 30.3798 68.7433 30.3798H67.6627C67.0386 30.3798 66.567 29.8145 66.6789 29.2005L67.0913 26.9374C67.2813 25.8951 65.9324 25.3118 65.3031 26.1641L60.3515 32.8699C59.864 33.5301 60.3353 34.4639 61.1559 34.4639H62.2365C62.8606 34.4639 63.3322 35.0293 63.2203 35.6432L62.8079 37.9064C62.6179 38.9487 63.9668 39.532 64.5961 38.6797L69.5477 31.9738Z" fill="url(#paint2_linear_2_1720)"/>
<path d="M54.6354 44.7422H75.3854C75.3854 47.9653 72.7725 50.5781 69.5494 50.5781H60.4713C57.2482 50.5781 54.6354 47.9653 54.6354 44.7422Z" fill="url(#paint3_linear_2_1720)"/>
<path d="M54.6354 19.4531H75.3854C75.3854 16.23 72.7725 13.6172 69.5494 13.6172H60.4713C57.2482 13.6172 54.6354 16.23 54.6354 19.4531Z" fill="url(#paint4_linear_2_1720)"/>
<path d="M10.7822 53.9262V57.5812C10.7822 60.1597 12.8725 62.25 15.451 62.25H55.3947C57.9732 62.25 60.0635 60.1597 60.0635 57.5812V45.5654C60.0635 37.2321 53.308 30.4766 44.9747 30.4766H42.0692C34.179 30.4766 26.52 33.1415 20.334 38.0394L17.3082 40.4352C13.186 43.6991 10.7822 48.6684 10.7822 53.9262Z" fill="url(#paint5_linear_2_1720)"/>
<path d="M24.6529 46.6875H46.9647C49.5432 46.6875 51.6335 44.5972 51.6335 42.0187V40.1187C51.6335 36.5861 48.7698 33.7224 45.2372 33.7224L45.067 33.7247L41.2328 33.8268C34.6076 34.0032 28.1999 36.2098 22.874 40.1431L22.5367 40.3956C20.9958 41.5643 20.6941 43.7609 21.8628 45.3019C22.5249 46.1747 23.5573 46.6875 24.6529 46.6875Z" fill="url(#paint6_linear_2_1720)"/>
<circle cx="23.751" cy="59.6562" r="5.83594" fill="url(#paint7_linear_2_1720)"/>
<circle cx="49.6885" cy="59.6562" r="5.83594" fill="url(#paint8_linear_2_1720)"/>
<path fill-rule="evenodd" clip-rule="evenodd" d="M56.3011 3.94866C56.1969 3.42169 55.6852 3.07899 55.1582 3.18322C54.2587 3.36114 53.3828 3.62704 52.5409 3.97613C50.8493 4.67759 49.3131 5.70768 48.0195 7.00131C46.7259 8.29494 45.6958 9.8311 44.9943 11.5227C44.6452 12.3646 44.3793 13.2405 44.2014 14.14C44.0972 14.667 44.4399 15.1787 44.9668 15.2829C45.4938 15.3872 46.0055 15.0445 46.1098 14.5175C46.2627 13.7443 46.4912 12.9915 46.7913 12.2679C47.3946 10.8129 48.2812 9.4907 49.395 8.37685C50.5089 7.26301 51.8311 6.37642 53.2861 5.77308C54.0097 5.47302 54.7625 5.2445 55.5357 5.09156C56.0627 4.98733 56.4054 4.47563 56.3011 3.94866ZM57.3134 9.03745C57.2091 8.51048 56.6974 8.16778 56.1705 8.27201C55.6055 8.38376 55.0553 8.55078 54.5266 8.77004C53.4642 9.21054 52.4998 9.85729 51.6876 10.6694C50.8755 11.4816 50.2287 12.4461 49.7882 13.5084C49.569 14.0371 49.4019 14.5873 49.2902 15.1523C49.186 15.6792 49.5287 16.1909 50.0556 16.2952C50.5826 16.3994 51.0943 16.0567 51.1985 15.5297C51.2853 15.0911 51.4149 14.664 51.5852 14.2535C51.9276 13.4278 52.4308 12.6773 53.0632 12.045C53.6955 11.4126 54.446 10.9094 55.2717 10.567C55.6822 10.3968 56.1093 10.2671 56.5479 10.1804C57.0749 10.0761 57.4176 9.56442 57.3134 9.03745Z" fill="#F5A623"/>
<defs>
<linearGradient id="paint0_linear_2_1720" x1="60.6246" y1="50.5781" x2="60.6246" y2="59.5319" gradientUnits="userSpaceOnUse">
<stop stop-color="#8ABD37"/>
<stop offset="0.274181" stop-color="#81B431"/>
<stop offset="1" stop-color="#387002"/>
</linearGradient>
<linearGradient id="paint1_linear_2_1720" x1="51.9654" y1="5.84611" x2="48.4664" y2="46.4545" gradientUnits="userSpaceOnUse">
<stop stop-color="#387002"/>
<stop offset="0.725819" stop-color="#81B431"/>
<stop offset="1" stop-color="#8ABD37"/>
</linearGradient>
<linearGradient id="paint2_linear_2_1720" x1="61.4483" y1="-7.42804" x2="41.7701" y2="33.7814" gradientUnits="userSpaceOnUse">
<stop stop-color="#8ABD37"/>
<stop offset="1" stop-color="#387002"/>
</linearGradient>
<linearGradient id="paint3_linear_2_1720" x1="76.81" y1="29.8613" x2="70.1863" y2="55.2057" gradientUnits="userSpaceOnUse">
<stop stop-color="#8ABD37"/>
<stop offset="1" stop-color="#387002"/>
</linearGradient>
<linearGradient id="paint4_linear_2_1720" x1="76.81" y1="34.334" x2="70.1863" y2="8.98966" gradientUnits="userSpaceOnUse">
<stop stop-color="#8ABD37"/>
<stop offset="1" stop-color="#387002"/>
</linearGradient>
<linearGradient id="paint5_linear_2_1720" x1="16.5853" y1="30.4766" x2="16.5853" y2="68.6274" gradientUnits="userSpaceOnUse">
<stop stop-color="#8ABD37"/>
<stop offset="0.274181" stop-color="#81B431"/>
<stop offset="1" stop-color="#387002"/>
</linearGradient>
<linearGradient id="paint6_linear_2_1720" x1="21.0168" y1="19.7389" x2="19.1392" y2="47.6838" gradientUnits="userSpaceOnUse">
<stop stop-color="#8ABD37"/>
<stop offset="1" stop-color="#387002"/>
</linearGradient>
<linearGradient id="paint7_linear_2_1720" x1="19.2894" y1="53.8203" x2="19.2894" y2="67.8349" gradientUnits="userSpaceOnUse">
<stop stop-color="#8ABD37"/>
<stop offset="0.274181" stop-color="#81B431"/>
<stop offset="1" stop-color="#387002"/>
</linearGradient>
<linearGradient id="paint8_linear_2_1720" x1="45.2269" y1="53.8203" x2="45.2269" y2="67.8349" gradientUnits="userSpaceOnUse">
<stop stop-color="#8ABD37"/>
<stop offset="0.274181" stop-color="#81B431"/>
<stop offset="1" stop-color="#387002"/>
</linearGradient>
</defs>
</svg>
