<svg width="84" height="83" viewBox="0 0 84 83" fill="none" xmlns="http://www.w3.org/2000/svg">
<path fill-rule="evenodd" clip-rule="evenodd" d="M4.60177 47.8445C10.0359 59.7286 30.4552 54.3024 32.1637 54.4165C40.8486 54.9996 44.3298 51.9348 49.9907 55.0334C55.5074 58.0527 55.5134 59.1556 60.8508 61.3631C66.1292 63.547 71.0577 62.8165 75.014 58.9967C83.7028 50.6076 90.5451 30.3559 70.2186 29.1691C64.1747 28.8162 57.7084 33.0875 52.3254 30.7325C44.221 27.1868 41.151 21.591 33.6061 16.8109C25.6031 11.7421 15.2463 10.491 8.69421 22.0058C8.1415 22.9766 0.611946 39.1206 4.60177 47.8445Z" fill="#E8F2D7"/>
<path fill-rule="evenodd" clip-rule="evenodd" d="M62.7502 75.2186C62.7502 77.0088 53.7506 78.4608 42.6487 78.4608C31.5474 78.4608 22.5471 77.0088 22.5471 75.2186C22.5471 73.4285 31.5474 71.9764 42.6487 71.9764C53.7506 71.9764 62.7502 73.4285 62.7502 75.2186Z" fill="#E8F2D7"/>
<rect x="18.3308" y="23.9922" width="47.9844" height="40.8516" rx="10" fill="url(#paint0_linear_2_4854)"/>
<path d="M14.7656 37.2028C18.6275 41.4336 25.2891 41.4336 29.151 37.2028C32.854 41.2595 39.2414 41.2595 42.9444 37.2028C46.6474 41.2595 53.0348 41.2595 56.7378 37.2028C60.4408 41.2595 66.8283 41.2595 70.5312 37.2028V29.8281H14.7656V37.2028Z" fill="url(#paint1_linear_2_4854)"/>
<path d="M19.5862 20.3438C20.2684 19.0017 21.6465 18.1562 23.1521 18.1562H62.1448C63.6504 18.1562 65.0284 19.0017 65.7106 20.3438L70.5312 29.8281H14.7656L19.5862 20.3438Z" fill="url(#paint2_linear_2_4854)"/>
<path d="M35.5156 49.2812C35.5156 45.3419 38.7091 42.1484 42.6484 42.1484C46.5878 42.1484 49.7812 45.3419 49.7812 49.2812V62.8984H35.5156V49.2812Z" fill="url(#paint3_linear_2_4854)"/>
<path fill-rule="evenodd" clip-rule="evenodd" d="M72.1523 9.40234C70.3617 9.40234 68.9102 10.8539 68.9102 12.6445C68.9102 14.4351 70.3617 15.8867 72.1523 15.8867C73.943 15.8867 75.3945 14.4351 75.3945 12.6445C75.3945 10.8539 73.943 9.40234 72.1523 9.40234ZM66.9648 12.6445C66.9648 9.77955 69.2874 7.45703 72.1523 7.45703C75.0173 7.45703 77.3398 9.77955 77.3398 12.6445C77.3398 15.5095 75.0173 17.832 72.1523 17.832C69.2874 17.832 66.9648 15.5095 66.9648 12.6445Z" fill="#F5A623"/>
<defs>
<linearGradient id="paint0_linear_2_4854" x1="36.1108" y1="-2.29617" x2="-2.81214" y2="55.2607" gradientUnits="userSpaceOnUse">
<stop stop-color="#8ABD37"/>
<stop offset="1" stop-color="#387002"/>
</linearGradient>
<linearGradient id="paint1_linear_2_4854" x1="88.2376" y1="46.9732" x2="89.2849" y2="14.0625" gradientUnits="userSpaceOnUse">
<stop offset="2.63936e-05" stop-color="#387002"/>
<stop offset="1" stop-color="#8ABD37"/>
</linearGradient>
<linearGradient id="paint2_linear_2_4854" x1="34.247" y1="10.7303" x2="24.4574" y2="45.9688" gradientUnits="userSpaceOnUse">
<stop stop-color="#8ABD37"/>
<stop offset="1" stop-color="#387002"/>
</linearGradient>
<linearGradient id="paint3_linear_2_4854" x1="40.5428" y1="21.0743" x2="4.88805" y2="39.266" gradientUnits="userSpaceOnUse">
<stop stop-color="#387002"/>
<stop offset="1" stop-color="#8ABD37"/>
</linearGradient>
</defs>
</svg>
